<mxfile host="Electron" agent="Mozilla/5.0 (Macintosh; Intel Mac OS X 10_15_7) AppleWebKit/537.36 (KHTML, like Gecko) draw.io/24.7.17 Chrome/128.0.6613.36 Electron/32.0.1 Safari/537.36" version="24.7.17">
  <diagram name="Page-1" id="1vEHx4_HzecGvx-od_U_">
    <mxGraphModel dx="1640" dy="1351" grid="1" gridSize="10" guides="1" tooltips="1" connect="1" arrows="1" fold="1" page="1" pageScale="1" pageWidth="850" pageHeight="1100" math="0" shadow="0">
      <root>
        <mxCell id="0" />
        <mxCell id="1" parent="0" />
        <mxCell id="7Oa1Ej6_2Gg9YlCHLcrd-3" value="" style="edgeStyle=orthogonalEdgeStyle;rounded=0;orthogonalLoop=1;jettySize=auto;html=1;" edge="1" parent="1" source="7Oa1Ej6_2Gg9YlCHLcrd-1" target="7Oa1Ej6_2Gg9YlCHLcrd-2">
          <mxGeometry relative="1" as="geometry" />
        </mxCell>
        <mxCell id="7Oa1Ej6_2Gg9YlCHLcrd-1" value="start main" style="html=1;dashed=0;whiteSpace=wrap;shape=mxgraph.dfd.start" vertex="1" parent="1">
          <mxGeometry x="65" y="20" width="80" height="30" as="geometry" />
        </mxCell>
        <mxCell id="7Oa1Ej6_2Gg9YlCHLcrd-5" value="" style="edgeStyle=orthogonalEdgeStyle;rounded=0;orthogonalLoop=1;jettySize=auto;html=1;" edge="1" parent="1" source="7Oa1Ej6_2Gg9YlCHLcrd-2" target="7Oa1Ej6_2Gg9YlCHLcrd-4">
          <mxGeometry relative="1" as="geometry" />
        </mxCell>
        <mxCell id="7Oa1Ej6_2Gg9YlCHLcrd-2" value="write table&lt;div&gt;header&lt;/div&gt;" style="shape=parallelogram;perimeter=parallelogramPerimeter;whiteSpace=wrap;html=1;fixedSize=1;" vertex="1" parent="1">
          <mxGeometry x="45" y="70" width="120" height="60" as="geometry" />
        </mxCell>
        <mxCell id="7Oa1Ej6_2Gg9YlCHLcrd-34" value="" style="edgeStyle=orthogonalEdgeStyle;rounded=0;orthogonalLoop=1;jettySize=auto;html=1;" edge="1" parent="1" source="7Oa1Ej6_2Gg9YlCHLcrd-4" target="7Oa1Ej6_2Gg9YlCHLcrd-33">
          <mxGeometry relative="1" as="geometry" />
        </mxCell>
        <mxCell id="7Oa1Ej6_2Gg9YlCHLcrd-4" value="&lt;div&gt;write(&#39;| Random (10)&amp;nbsp; &amp;nbsp; | &#39;);&lt;/div&gt;" style="shape=parallelogram;perimeter=parallelogramPerimeter;whiteSpace=wrap;html=1;fixedSize=1;" vertex="1" parent="1">
          <mxGeometry x="10" y="150" width="190" height="40" as="geometry" />
        </mxCell>
        <mxCell id="7Oa1Ej6_2Gg9YlCHLcrd-33" value="&lt;div&gt;printPart(arr10, comparisons, insertions, ftRandom);&lt;/div&gt;" style="shape=process;whiteSpace=wrap;html=1;backgroundOutline=1;" vertex="1" parent="1">
          <mxGeometry x="45" y="210" width="120" height="60" as="geometry" />
        </mxCell>
        <mxCell id="7Oa1Ej6_2Gg9YlCHLcrd-35" value="" style="edgeStyle=orthogonalEdgeStyle;rounded=0;orthogonalLoop=1;jettySize=auto;html=1;entryX=0.5;entryY=0;entryDx=0;entryDy=0;" edge="1" parent="1" target="7Oa1Ej6_2Gg9YlCHLcrd-36">
          <mxGeometry relative="1" as="geometry">
            <mxPoint x="105" y="270" as="sourcePoint" />
          </mxGeometry>
        </mxCell>
        <mxCell id="7Oa1Ej6_2Gg9YlCHLcrd-52" value="" style="edgeStyle=orthogonalEdgeStyle;rounded=0;orthogonalLoop=1;jettySize=auto;html=1;" edge="1" parent="1" source="7Oa1Ej6_2Gg9YlCHLcrd-36" target="7Oa1Ej6_2Gg9YlCHLcrd-38">
          <mxGeometry relative="1" as="geometry" />
        </mxCell>
        <mxCell id="7Oa1Ej6_2Gg9YlCHLcrd-36" value="&lt;div&gt;printPart(arr10, comparisons, insertions, ftSorted);&lt;/div&gt;" style="shape=process;whiteSpace=wrap;html=1;backgroundOutline=1;" vertex="1" parent="1">
          <mxGeometry x="45" y="290" width="120" height="60" as="geometry" />
        </mxCell>
        <mxCell id="7Oa1Ej6_2Gg9YlCHLcrd-64" style="edgeStyle=orthogonalEdgeStyle;rounded=0;orthogonalLoop=1;jettySize=auto;html=1;exitX=0.5;exitY=1;exitDx=0;exitDy=0;entryX=0.5;entryY=0;entryDx=0;entryDy=0;" edge="1" parent="1" source="7Oa1Ej6_2Gg9YlCHLcrd-38" target="7Oa1Ej6_2Gg9YlCHLcrd-62">
          <mxGeometry relative="1" as="geometry" />
        </mxCell>
        <mxCell id="7Oa1Ej6_2Gg9YlCHLcrd-38" value="&lt;div&gt;printPart(arr10, comparisons, insertions, ftReverse);&lt;/div&gt;" style="shape=process;whiteSpace=wrap;html=1;backgroundOutline=1;" vertex="1" parent="1">
          <mxGeometry x="45" y="370" width="120" height="60" as="geometry" />
        </mxCell>
        <mxCell id="7Oa1Ej6_2Gg9YlCHLcrd-40" value="&lt;div&gt;printPart(arr100, comparisons, insertions, ftRandom);&lt;/div&gt;" style="shape=process;whiteSpace=wrap;html=1;backgroundOutline=1;" vertex="1" parent="1">
          <mxGeometry x="45" y="490" width="120" height="60" as="geometry" />
        </mxCell>
        <mxCell id="7Oa1Ej6_2Gg9YlCHLcrd-59" value="" style="edgeStyle=orthogonalEdgeStyle;rounded=0;orthogonalLoop=1;jettySize=auto;html=1;" edge="1" parent="1" source="7Oa1Ej6_2Gg9YlCHLcrd-42" target="7Oa1Ej6_2Gg9YlCHLcrd-44">
          <mxGeometry relative="1" as="geometry" />
        </mxCell>
        <mxCell id="7Oa1Ej6_2Gg9YlCHLcrd-42" value="&lt;div&gt;printPart(arr100, comparisons, insertions, ftSorted);&lt;/div&gt;" style="shape=process;whiteSpace=wrap;html=1;backgroundOutline=1;" vertex="1" parent="1">
          <mxGeometry x="45" y="570" width="120" height="60" as="geometry" />
        </mxCell>
        <mxCell id="7Oa1Ej6_2Gg9YlCHLcrd-44" value="&lt;div&gt;printPart(arr100, comparisons, insertions, ftReverse);&lt;/div&gt;" style="shape=process;whiteSpace=wrap;html=1;backgroundOutline=1;" vertex="1" parent="1">
          <mxGeometry x="45" y="650" width="120" height="60" as="geometry" />
        </mxCell>
        <mxCell id="7Oa1Ej6_2Gg9YlCHLcrd-61" value="" style="edgeStyle=orthogonalEdgeStyle;rounded=0;orthogonalLoop=1;jettySize=auto;html=1;" edge="1" parent="1" source="7Oa1Ej6_2Gg9YlCHLcrd-46" target="7Oa1Ej6_2Gg9YlCHLcrd-48">
          <mxGeometry relative="1" as="geometry" />
        </mxCell>
        <mxCell id="7Oa1Ej6_2Gg9YlCHLcrd-46" value="&lt;div&gt;printPart(arr2000, comparisons, insertions, ftRandom);&lt;/div&gt;" style="shape=process;whiteSpace=wrap;html=1;backgroundOutline=1;" vertex="1" parent="1">
          <mxGeometry x="45" y="770" width="120" height="60" as="geometry" />
        </mxCell>
        <mxCell id="7Oa1Ej6_2Gg9YlCHLcrd-71" style="edgeStyle=orthogonalEdgeStyle;rounded=0;orthogonalLoop=1;jettySize=auto;html=1;exitX=0.5;exitY=1;exitDx=0;exitDy=0;entryX=0.5;entryY=0;entryDx=0;entryDy=0;" edge="1" parent="1" source="7Oa1Ej6_2Gg9YlCHLcrd-48" target="7Oa1Ej6_2Gg9YlCHLcrd-50">
          <mxGeometry relative="1" as="geometry" />
        </mxCell>
        <mxCell id="7Oa1Ej6_2Gg9YlCHLcrd-48" value="&lt;div&gt;printPart(arr2000, comparisons, insertions, ftSorted);&lt;/div&gt;" style="shape=process;whiteSpace=wrap;html=1;backgroundOutline=1;" vertex="1" parent="1">
          <mxGeometry x="45" y="850" width="120" height="60" as="geometry" />
        </mxCell>
        <mxCell id="7Oa1Ej6_2Gg9YlCHLcrd-70" style="edgeStyle=orthogonalEdgeStyle;rounded=0;orthogonalLoop=1;jettySize=auto;html=1;exitX=0.5;exitY=1;exitDx=0;exitDy=0;entryX=0.5;entryY=0;entryDx=0;entryDy=0;" edge="1" parent="1" source="7Oa1Ej6_2Gg9YlCHLcrd-50" target="7Oa1Ej6_2Gg9YlCHLcrd-69">
          <mxGeometry relative="1" as="geometry" />
        </mxCell>
        <mxCell id="7Oa1Ej6_2Gg9YlCHLcrd-50" value="&lt;div&gt;printPart(arr2000, comparisons, insertions, ftReverse);&lt;/div&gt;" style="shape=process;whiteSpace=wrap;html=1;backgroundOutline=1;" vertex="1" parent="1">
          <mxGeometry x="45" y="930" width="120" height="60" as="geometry" />
        </mxCell>
        <mxCell id="7Oa1Ej6_2Gg9YlCHLcrd-51" style="edgeStyle=orthogonalEdgeStyle;rounded=0;orthogonalLoop=1;jettySize=auto;html=1;exitX=0.5;exitY=1;exitDx=0;exitDy=0;" edge="1" parent="1" source="7Oa1Ej6_2Gg9YlCHLcrd-36" target="7Oa1Ej6_2Gg9YlCHLcrd-36">
          <mxGeometry relative="1" as="geometry" />
        </mxCell>
        <mxCell id="7Oa1Ej6_2Gg9YlCHLcrd-58" style="edgeStyle=orthogonalEdgeStyle;rounded=0;orthogonalLoop=1;jettySize=auto;html=1;exitX=0.5;exitY=1;exitDx=0;exitDy=0;entryX=0.5;entryY=0;entryDx=0;entryDy=0;" edge="1" parent="1" target="7Oa1Ej6_2Gg9YlCHLcrd-42">
          <mxGeometry relative="1" as="geometry">
            <mxPoint x="105" y="550" as="sourcePoint" />
          </mxGeometry>
        </mxCell>
        <mxCell id="7Oa1Ej6_2Gg9YlCHLcrd-65" style="edgeStyle=orthogonalEdgeStyle;rounded=0;orthogonalLoop=1;jettySize=auto;html=1;exitX=0.5;exitY=1;exitDx=0;exitDy=0;entryX=0.5;entryY=0;entryDx=0;entryDy=0;" edge="1" parent="1" source="7Oa1Ej6_2Gg9YlCHLcrd-62" target="7Oa1Ej6_2Gg9YlCHLcrd-40">
          <mxGeometry relative="1" as="geometry" />
        </mxCell>
        <mxCell id="7Oa1Ej6_2Gg9YlCHLcrd-62" value="draw delitmer line" style="shape=parallelogram;perimeter=parallelogramPerimeter;whiteSpace=wrap;html=1;fixedSize=1;" vertex="1" parent="1">
          <mxGeometry x="45" y="450" width="120" height="20" as="geometry" />
        </mxCell>
        <mxCell id="7Oa1Ej6_2Gg9YlCHLcrd-68" style="edgeStyle=orthogonalEdgeStyle;rounded=0;orthogonalLoop=1;jettySize=auto;html=1;exitX=0.5;exitY=1;exitDx=0;exitDy=0;entryX=0.5;entryY=0;entryDx=0;entryDy=0;" edge="1" parent="1" source="7Oa1Ej6_2Gg9YlCHLcrd-66" target="7Oa1Ej6_2Gg9YlCHLcrd-46">
          <mxGeometry relative="1" as="geometry" />
        </mxCell>
        <mxCell id="7Oa1Ej6_2Gg9YlCHLcrd-66" value="draw delitmer line" style="shape=parallelogram;perimeter=parallelogramPerimeter;whiteSpace=wrap;html=1;fixedSize=1;" vertex="1" parent="1">
          <mxGeometry x="45" y="730" width="120" height="20" as="geometry" />
        </mxCell>
        <mxCell id="7Oa1Ej6_2Gg9YlCHLcrd-67" style="edgeStyle=orthogonalEdgeStyle;rounded=0;orthogonalLoop=1;jettySize=auto;html=1;exitX=0.5;exitY=1;exitDx=0;exitDy=0;entryX=0.5;entryY=0;entryDx=0;entryDy=0;" edge="1" parent="1" source="7Oa1Ej6_2Gg9YlCHLcrd-44" target="7Oa1Ej6_2Gg9YlCHLcrd-66">
          <mxGeometry relative="1" as="geometry" />
        </mxCell>
        <mxCell id="7Oa1Ej6_2Gg9YlCHLcrd-73" value="" style="edgeStyle=orthogonalEdgeStyle;rounded=0;orthogonalLoop=1;jettySize=auto;html=1;" edge="1" parent="1" source="7Oa1Ej6_2Gg9YlCHLcrd-69" target="7Oa1Ej6_2Gg9YlCHLcrd-72">
          <mxGeometry relative="1" as="geometry" />
        </mxCell>
        <mxCell id="7Oa1Ej6_2Gg9YlCHLcrd-69" value="draw delitmer line" style="shape=parallelogram;perimeter=parallelogramPerimeter;whiteSpace=wrap;html=1;fixedSize=1;" vertex="1" parent="1">
          <mxGeometry x="45" y="1010" width="120" height="20" as="geometry" />
        </mxCell>
        <mxCell id="7Oa1Ej6_2Gg9YlCHLcrd-72" value="end main" style="html=1;dashed=0;whiteSpace=wrap;shape=mxgraph.dfd.start" vertex="1" parent="1">
          <mxGeometry x="65" y="1050" width="80" height="30" as="geometry" />
        </mxCell>
        <mxCell id="7Oa1Ej6_2Gg9YlCHLcrd-77" value="" style="edgeStyle=orthogonalEdgeStyle;rounded=0;orthogonalLoop=1;jettySize=auto;html=1;" edge="1" parent="1" source="7Oa1Ej6_2Gg9YlCHLcrd-109" target="7Oa1Ej6_2Gg9YlCHLcrd-76">
          <mxGeometry relative="1" as="geometry" />
        </mxCell>
        <mxCell id="7Oa1Ej6_2Gg9YlCHLcrd-74" value="start fill" style="html=1;dashed=0;whiteSpace=wrap;shape=mxgraph.dfd.start" vertex="1" parent="1">
          <mxGeometry x="320" y="20" width="80" height="30" as="geometry" />
        </mxCell>
        <mxCell id="7Oa1Ej6_2Gg9YlCHLcrd-75" value="end fill" style="html=1;dashed=0;whiteSpace=wrap;shape=mxgraph.dfd.start" vertex="1" parent="1">
          <mxGeometry x="320" y="580" width="80" height="30" as="geometry" />
        </mxCell>
        <mxCell id="7Oa1Ej6_2Gg9YlCHLcrd-80" value="" style="edgeStyle=orthogonalEdgeStyle;rounded=0;orthogonalLoop=1;jettySize=auto;html=1;" edge="1" parent="1" source="7Oa1Ej6_2Gg9YlCHLcrd-76" target="7Oa1Ej6_2Gg9YlCHLcrd-79">
          <mxGeometry relative="1" as="geometry" />
        </mxCell>
        <mxCell id="7Oa1Ej6_2Gg9YlCHLcrd-76" value="randomize;&lt;div&gt;&lt;div&gt;&amp;nbsp; i := low(arr);&lt;/div&gt;&lt;/div&gt;" style="whiteSpace=wrap;html=1;dashed=0;" vertex="1" parent="1">
          <mxGeometry x="300" y="120" width="120" height="40" as="geometry" />
        </mxCell>
        <mxCell id="7Oa1Ej6_2Gg9YlCHLcrd-86" value="" style="edgeStyle=orthogonalEdgeStyle;rounded=0;orthogonalLoop=1;jettySize=auto;html=1;" edge="1" parent="1" source="7Oa1Ej6_2Gg9YlCHLcrd-79" target="7Oa1Ej6_2Gg9YlCHLcrd-85">
          <mxGeometry relative="1" as="geometry" />
        </mxCell>
        <mxCell id="7Oa1Ej6_2Gg9YlCHLcrd-79" value="&lt;div&gt;fillWhileI&lt;/div&gt;&lt;div&gt;i &amp;lt;= high(arr)&lt;/div&gt;" style="strokeWidth=2;html=1;shape=mxgraph.flowchart.loop_limit;whiteSpace=wrap;" vertex="1" parent="1">
          <mxGeometry x="310" y="180" width="100" height="40" as="geometry" />
        </mxCell>
        <mxCell id="7Oa1Ej6_2Gg9YlCHLcrd-84" value="" style="group" vertex="1" connectable="0" parent="1">
          <mxGeometry x="310" y="515" width="100" height="40" as="geometry" />
        </mxCell>
        <mxCell id="7Oa1Ej6_2Gg9YlCHLcrd-81" value="" style="strokeWidth=2;html=1;shape=mxgraph.flowchart.loop_limit;whiteSpace=wrap;rotation=-180;" vertex="1" parent="7Oa1Ej6_2Gg9YlCHLcrd-84">
          <mxGeometry width="100" height="40" as="geometry" />
        </mxCell>
        <mxCell id="7Oa1Ej6_2Gg9YlCHLcrd-82" value="&lt;span style=&quot;color: rgb(240, 240, 240); font-family: Helvetica; font-size: 12px; font-style: normal; font-variant-ligatures: normal; font-variant-caps: normal; font-weight: 400; letter-spacing: normal; orphans: 2; text-indent: 0px; text-transform: none; widows: 2; word-spacing: 0px; -webkit-text-stroke-width: 0px; white-space: normal; background-color: rgb(27, 29, 30); text-decoration-thickness: initial; text-decoration-style: initial; text-decoration-color: initial; float: none; display: inline !important;&quot;&gt;fillWhileI&lt;/span&gt;" style="text;whiteSpace=wrap;html=1;align=center;verticalAlign=middle;" vertex="1" parent="7Oa1Ej6_2Gg9YlCHLcrd-84">
          <mxGeometry width="100" height="40" as="geometry" />
        </mxCell>
        <mxCell id="7Oa1Ej6_2Gg9YlCHLcrd-88" value="yes" style="edgeStyle=orthogonalEdgeStyle;rounded=0;orthogonalLoop=1;jettySize=auto;html=1;" edge="1" parent="1" source="7Oa1Ej6_2Gg9YlCHLcrd-85" target="7Oa1Ej6_2Gg9YlCHLcrd-87">
          <mxGeometry x="0.2" y="10" relative="1" as="geometry">
            <mxPoint as="offset" />
          </mxGeometry>
        </mxCell>
        <mxCell id="7Oa1Ej6_2Gg9YlCHLcrd-90" value="no" style="edgeStyle=orthogonalEdgeStyle;rounded=0;orthogonalLoop=1;jettySize=auto;html=1;" edge="1" parent="1" source="7Oa1Ej6_2Gg9YlCHLcrd-85" target="7Oa1Ej6_2Gg9YlCHLcrd-89">
          <mxGeometry x="-0.3333" y="10" relative="1" as="geometry">
            <mxPoint as="offset" />
          </mxGeometry>
        </mxCell>
        <mxCell id="7Oa1Ej6_2Gg9YlCHLcrd-85" value="fillType =&lt;div&gt;&lt;span style=&quot;background-color: initial;&quot;&gt;ftRandom&lt;/span&gt;&lt;/div&gt;" style="rhombus;whiteSpace=wrap;html=1;strokeWidth=2;" vertex="1" parent="1">
          <mxGeometry x="320" y="240" width="80" height="80" as="geometry" />
        </mxCell>
        <mxCell id="7Oa1Ej6_2Gg9YlCHLcrd-101" value="" style="edgeStyle=orthogonalEdgeStyle;rounded=0;orthogonalLoop=1;jettySize=auto;html=1;" edge="1" parent="1" source="7Oa1Ej6_2Gg9YlCHLcrd-87" target="7Oa1Ej6_2Gg9YlCHLcrd-100">
          <mxGeometry relative="1" as="geometry" />
        </mxCell>
        <mxCell id="7Oa1Ej6_2Gg9YlCHLcrd-87" value="arr[i] := random(2000);" style="whiteSpace=wrap;html=1;strokeWidth=2;" vertex="1" parent="1">
          <mxGeometry x="295" y="350" width="130" height="20" as="geometry" />
        </mxCell>
        <mxCell id="7Oa1Ej6_2Gg9YlCHLcrd-92" value="" style="edgeStyle=orthogonalEdgeStyle;rounded=0;orthogonalLoop=1;jettySize=auto;html=1;" edge="1" parent="1" source="7Oa1Ej6_2Gg9YlCHLcrd-89" target="7Oa1Ej6_2Gg9YlCHLcrd-91">
          <mxGeometry relative="1" as="geometry" />
        </mxCell>
        <mxCell id="7Oa1Ej6_2Gg9YlCHLcrd-97" value="no" style="edgeLabel;html=1;align=center;verticalAlign=middle;resizable=0;points=[];" vertex="1" connectable="0" parent="7Oa1Ej6_2Gg9YlCHLcrd-92">
          <mxGeometry x="-0.3558" y="-3" relative="1" as="geometry">
            <mxPoint y="-13" as="offset" />
          </mxGeometry>
        </mxCell>
        <mxCell id="7Oa1Ej6_2Gg9YlCHLcrd-94" value="" style="edgeStyle=orthogonalEdgeStyle;rounded=0;orthogonalLoop=1;jettySize=auto;html=1;" edge="1" parent="1" source="7Oa1Ej6_2Gg9YlCHLcrd-89" target="7Oa1Ej6_2Gg9YlCHLcrd-93">
          <mxGeometry relative="1" as="geometry" />
        </mxCell>
        <mxCell id="7Oa1Ej6_2Gg9YlCHLcrd-98" value="yes" style="edgeLabel;html=1;align=center;verticalAlign=middle;resizable=0;points=[];" vertex="1" connectable="0" parent="7Oa1Ej6_2Gg9YlCHLcrd-94">
          <mxGeometry x="-0.8308" y="1" relative="1" as="geometry">
            <mxPoint x="9" y="6" as="offset" />
          </mxGeometry>
        </mxCell>
        <mxCell id="7Oa1Ej6_2Gg9YlCHLcrd-89" value="fillType =&lt;div&gt;ftSorted&lt;br&gt;&lt;/div&gt;" style="rhombus;whiteSpace=wrap;html=1;strokeWidth=2;" vertex="1" parent="1">
          <mxGeometry x="440" y="240" width="80" height="80" as="geometry" />
        </mxCell>
        <mxCell id="7Oa1Ej6_2Gg9YlCHLcrd-96" value="" style="edgeStyle=orthogonalEdgeStyle;rounded=0;orthogonalLoop=1;jettySize=auto;html=1;" edge="1" parent="1" source="7Oa1Ej6_2Gg9YlCHLcrd-91" target="7Oa1Ej6_2Gg9YlCHLcrd-95">
          <mxGeometry relative="1" as="geometry" />
        </mxCell>
        <mxCell id="7Oa1Ej6_2Gg9YlCHLcrd-99" value="yes" style="edgeLabel;html=1;align=center;verticalAlign=middle;resizable=0;points=[];" vertex="1" connectable="0" parent="7Oa1Ej6_2Gg9YlCHLcrd-96">
          <mxGeometry x="0.2769" y="2" relative="1" as="geometry">
            <mxPoint x="8" y="-2" as="offset" />
          </mxGeometry>
        </mxCell>
        <mxCell id="7Oa1Ej6_2Gg9YlCHLcrd-110" style="edgeStyle=orthogonalEdgeStyle;rounded=0;orthogonalLoop=1;jettySize=auto;html=1;exitX=1;exitY=0.5;exitDx=0;exitDy=0;" edge="1" parent="1" source="7Oa1Ej6_2Gg9YlCHLcrd-91">
          <mxGeometry relative="1" as="geometry">
            <mxPoint x="360" y="430" as="targetPoint" />
            <Array as="points">
              <mxPoint x="660" y="280" />
              <mxPoint x="660" y="430" />
            </Array>
          </mxGeometry>
        </mxCell>
        <mxCell id="7Oa1Ej6_2Gg9YlCHLcrd-160" value="no" style="edgeLabel;html=1;align=center;verticalAlign=middle;resizable=0;points=[];" vertex="1" connectable="0" parent="7Oa1Ej6_2Gg9YlCHLcrd-110">
          <mxGeometry x="-0.9602" y="-2" relative="1" as="geometry">
            <mxPoint y="-12" as="offset" />
          </mxGeometry>
        </mxCell>
        <mxCell id="7Oa1Ej6_2Gg9YlCHLcrd-91" value="fillType =&lt;div&gt;ftReverse&lt;br&gt;&lt;/div&gt;" style="rhombus;whiteSpace=wrap;html=1;strokeWidth=2;" vertex="1" parent="1">
          <mxGeometry x="560" y="240" width="80" height="80" as="geometry" />
        </mxCell>
        <mxCell id="7Oa1Ej6_2Gg9YlCHLcrd-102" style="edgeStyle=orthogonalEdgeStyle;rounded=0;orthogonalLoop=1;jettySize=auto;html=1;exitX=0.5;exitY=1;exitDx=0;exitDy=0;" edge="1" parent="1" source="7Oa1Ej6_2Gg9YlCHLcrd-93">
          <mxGeometry relative="1" as="geometry">
            <mxPoint x="360" y="390" as="targetPoint" />
            <Array as="points">
              <mxPoint x="480" y="390" />
            </Array>
          </mxGeometry>
        </mxCell>
        <mxCell id="7Oa1Ej6_2Gg9YlCHLcrd-93" value="arr[i] := i;" style="whiteSpace=wrap;html=1;strokeWidth=2;" vertex="1" parent="1">
          <mxGeometry x="450" y="350" width="60" height="20" as="geometry" />
        </mxCell>
        <mxCell id="7Oa1Ej6_2Gg9YlCHLcrd-103" style="edgeStyle=orthogonalEdgeStyle;rounded=0;orthogonalLoop=1;jettySize=auto;html=1;exitX=0.5;exitY=1;exitDx=0;exitDy=0;" edge="1" parent="1" source="7Oa1Ej6_2Gg9YlCHLcrd-95">
          <mxGeometry relative="1" as="geometry">
            <mxPoint x="360" y="410" as="targetPoint" />
            <Array as="points">
              <mxPoint x="600" y="410" />
            </Array>
          </mxGeometry>
        </mxCell>
        <mxCell id="7Oa1Ej6_2Gg9YlCHLcrd-95" value="arr[i] := high(arr) - i;" style="whiteSpace=wrap;html=1;strokeWidth=2;" vertex="1" parent="1">
          <mxGeometry x="540" y="350" width="120" height="20" as="geometry" />
        </mxCell>
        <mxCell id="7Oa1Ej6_2Gg9YlCHLcrd-104" value="" style="edgeStyle=orthogonalEdgeStyle;rounded=0;orthogonalLoop=1;jettySize=auto;html=1;" edge="1" parent="1" source="7Oa1Ej6_2Gg9YlCHLcrd-100" target="7Oa1Ej6_2Gg9YlCHLcrd-82">
          <mxGeometry relative="1" as="geometry" />
        </mxCell>
        <mxCell id="7Oa1Ej6_2Gg9YlCHLcrd-100" value="Inc(i);" style="whiteSpace=wrap;html=1;strokeWidth=2;" vertex="1" parent="1">
          <mxGeometry x="335" y="460" width="50" height="30" as="geometry" />
        </mxCell>
        <mxCell id="7Oa1Ej6_2Gg9YlCHLcrd-105" value="" style="edgeStyle=orthogonalEdgeStyle;rounded=0;orthogonalLoop=1;jettySize=auto;html=1;" edge="1" parent="1" source="7Oa1Ej6_2Gg9YlCHLcrd-82" target="7Oa1Ej6_2Gg9YlCHLcrd-75">
          <mxGeometry relative="1" as="geometry" />
        </mxCell>
        <mxCell id="7Oa1Ej6_2Gg9YlCHLcrd-112" value="" style="edgeStyle=orthogonalEdgeStyle;rounded=0;orthogonalLoop=1;jettySize=auto;html=1;" edge="1" parent="1" source="7Oa1Ej6_2Gg9YlCHLcrd-106" target="7Oa1Ej6_2Gg9YlCHLcrd-111">
          <mxGeometry relative="1" as="geometry" />
        </mxCell>
        <mxCell id="7Oa1Ej6_2Gg9YlCHLcrd-106" value="start printPart" style="html=1;dashed=0;whiteSpace=wrap;shape=mxgraph.dfd.start" vertex="1" parent="1">
          <mxGeometry x="327.5" y="650" width="95" height="30" as="geometry" />
        </mxCell>
        <mxCell id="7Oa1Ej6_2Gg9YlCHLcrd-107" value="end printPart" style="html=1;dashed=0;whiteSpace=wrap;shape=mxgraph.dfd.start" vertex="1" parent="1">
          <mxGeometry x="899.5" y="680" width="95" height="30" as="geometry" />
        </mxCell>
        <mxCell id="7Oa1Ej6_2Gg9YlCHLcrd-108" value="" style="edgeStyle=orthogonalEdgeStyle;rounded=0;orthogonalLoop=1;jettySize=auto;html=1;" edge="1" parent="1" source="7Oa1Ej6_2Gg9YlCHLcrd-74" target="7Oa1Ej6_2Gg9YlCHLcrd-109">
          <mxGeometry relative="1" as="geometry">
            <mxPoint x="360" y="50" as="sourcePoint" />
            <mxPoint x="365" y="171" as="targetPoint" />
          </mxGeometry>
        </mxCell>
        <mxCell id="7Oa1Ej6_2Gg9YlCHLcrd-109" value="arr,&amp;nbsp;fillType" style="shape=parallelogram;perimeter=parallelogramPerimeter;whiteSpace=wrap;html=1;fixedSize=1;" vertex="1" parent="1">
          <mxGeometry x="310" y="70" width="100" height="20" as="geometry" />
        </mxCell>
        <mxCell id="7Oa1Ej6_2Gg9YlCHLcrd-133" value="" style="edgeStyle=orthogonalEdgeStyle;rounded=0;orthogonalLoop=1;jettySize=auto;html=1;" edge="1" parent="1" source="7Oa1Ej6_2Gg9YlCHLcrd-111" target="7Oa1Ej6_2Gg9YlCHLcrd-115">
          <mxGeometry relative="1" as="geometry" />
        </mxCell>
        <mxCell id="7Oa1Ej6_2Gg9YlCHLcrd-111" value="arr,&amp;nbsp;comparisons, insertions, fillType" style="shape=parallelogram;perimeter=parallelogramPerimeter;whiteSpace=wrap;html=1;fixedSize=1;" vertex="1" parent="1">
          <mxGeometry x="310" y="695" width="130" height="40" as="geometry" />
        </mxCell>
        <mxCell id="7Oa1Ej6_2Gg9YlCHLcrd-113" value="yes" style="edgeStyle=orthogonalEdgeStyle;rounded=0;orthogonalLoop=1;jettySize=auto;html=1;entryX=0.5;entryY=0;entryDx=0;entryDy=0;" edge="1" parent="1" source="7Oa1Ej6_2Gg9YlCHLcrd-115" target="7Oa1Ej6_2Gg9YlCHLcrd-134">
          <mxGeometry x="0.2" y="10" relative="1" as="geometry">
            <mxPoint as="offset" />
            <mxPoint x="375" y="865" as="targetPoint" />
          </mxGeometry>
        </mxCell>
        <mxCell id="7Oa1Ej6_2Gg9YlCHLcrd-114" value="no" style="edgeStyle=orthogonalEdgeStyle;rounded=0;orthogonalLoop=1;jettySize=auto;html=1;" edge="1" parent="1" source="7Oa1Ej6_2Gg9YlCHLcrd-115" target="7Oa1Ej6_2Gg9YlCHLcrd-122">
          <mxGeometry x="-0.3333" y="10" relative="1" as="geometry">
            <mxPoint as="offset" />
          </mxGeometry>
        </mxCell>
        <mxCell id="7Oa1Ej6_2Gg9YlCHLcrd-115" value="fillType =&lt;div&gt;&lt;span style=&quot;background-color: initial;&quot;&gt;ftRandom&lt;/span&gt;&lt;/div&gt;" style="rhombus;whiteSpace=wrap;html=1;strokeWidth=2;" vertex="1" parent="1">
          <mxGeometry x="335" y="755" width="80" height="80" as="geometry" />
        </mxCell>
        <mxCell id="7Oa1Ej6_2Gg9YlCHLcrd-118" value="" style="edgeStyle=orthogonalEdgeStyle;rounded=0;orthogonalLoop=1;jettySize=auto;html=1;" edge="1" parent="1" source="7Oa1Ej6_2Gg9YlCHLcrd-122" target="7Oa1Ej6_2Gg9YlCHLcrd-126">
          <mxGeometry relative="1" as="geometry" />
        </mxCell>
        <mxCell id="7Oa1Ej6_2Gg9YlCHLcrd-119" value="no" style="edgeLabel;html=1;align=center;verticalAlign=middle;resizable=0;points=[];" vertex="1" connectable="0" parent="7Oa1Ej6_2Gg9YlCHLcrd-118">
          <mxGeometry x="-0.3558" y="-3" relative="1" as="geometry">
            <mxPoint y="-13" as="offset" />
          </mxGeometry>
        </mxCell>
        <mxCell id="7Oa1Ej6_2Gg9YlCHLcrd-120" value="" style="edgeStyle=orthogonalEdgeStyle;rounded=0;orthogonalLoop=1;jettySize=auto;html=1;entryX=0.5;entryY=0;entryDx=0;entryDy=0;" edge="1" parent="1" source="7Oa1Ej6_2Gg9YlCHLcrd-122" target="7Oa1Ej6_2Gg9YlCHLcrd-136">
          <mxGeometry relative="1" as="geometry">
            <mxPoint x="495" y="865" as="targetPoint" />
          </mxGeometry>
        </mxCell>
        <mxCell id="7Oa1Ej6_2Gg9YlCHLcrd-121" value="yes" style="edgeLabel;html=1;align=center;verticalAlign=middle;resizable=0;points=[];" vertex="1" connectable="0" parent="7Oa1Ej6_2Gg9YlCHLcrd-120">
          <mxGeometry x="-0.8308" y="1" relative="1" as="geometry">
            <mxPoint x="9" y="6" as="offset" />
          </mxGeometry>
        </mxCell>
        <mxCell id="7Oa1Ej6_2Gg9YlCHLcrd-122" value="fillType =&lt;div&gt;ftSorted&lt;br&gt;&lt;/div&gt;" style="rhombus;whiteSpace=wrap;html=1;strokeWidth=2;" vertex="1" parent="1">
          <mxGeometry x="455" y="755" width="80" height="80" as="geometry" />
        </mxCell>
        <mxCell id="7Oa1Ej6_2Gg9YlCHLcrd-123" value="" style="edgeStyle=orthogonalEdgeStyle;rounded=0;orthogonalLoop=1;jettySize=auto;html=1;entryX=0.5;entryY=0;entryDx=0;entryDy=0;" edge="1" parent="1" source="7Oa1Ej6_2Gg9YlCHLcrd-126" target="7Oa1Ej6_2Gg9YlCHLcrd-137">
          <mxGeometry relative="1" as="geometry">
            <mxPoint x="615" y="865" as="targetPoint" />
          </mxGeometry>
        </mxCell>
        <mxCell id="7Oa1Ej6_2Gg9YlCHLcrd-124" value="yes" style="edgeLabel;html=1;align=center;verticalAlign=middle;resizable=0;points=[];" vertex="1" connectable="0" parent="7Oa1Ej6_2Gg9YlCHLcrd-123">
          <mxGeometry x="0.2769" y="2" relative="1" as="geometry">
            <mxPoint x="8" y="-2" as="offset" />
          </mxGeometry>
        </mxCell>
        <mxCell id="7Oa1Ej6_2Gg9YlCHLcrd-125" style="edgeStyle=orthogonalEdgeStyle;rounded=0;orthogonalLoop=1;jettySize=auto;html=1;exitX=1;exitY=0.5;exitDx=0;exitDy=0;" edge="1" parent="1" source="7Oa1Ej6_2Gg9YlCHLcrd-126">
          <mxGeometry relative="1" as="geometry">
            <mxPoint x="375" y="980" as="targetPoint" />
            <Array as="points">
              <mxPoint x="680" y="795" />
              <mxPoint x="680" y="980" />
              <mxPoint x="375" y="980" />
            </Array>
          </mxGeometry>
        </mxCell>
        <mxCell id="7Oa1Ej6_2Gg9YlCHLcrd-161" value="no" style="edgeLabel;html=1;align=center;verticalAlign=middle;resizable=0;points=[];" vertex="1" connectable="0" parent="7Oa1Ej6_2Gg9YlCHLcrd-125">
          <mxGeometry x="-0.889" y="-2" relative="1" as="geometry">
            <mxPoint x="-12" y="-13" as="offset" />
          </mxGeometry>
        </mxCell>
        <mxCell id="7Oa1Ej6_2Gg9YlCHLcrd-126" value="fillType =&lt;div&gt;ftReverse&lt;br&gt;&lt;/div&gt;" style="rhombus;whiteSpace=wrap;html=1;strokeWidth=2;" vertex="1" parent="1">
          <mxGeometry x="575" y="755" width="80" height="80" as="geometry" />
        </mxCell>
        <mxCell id="7Oa1Ej6_2Gg9YlCHLcrd-127" style="edgeStyle=orthogonalEdgeStyle;rounded=0;orthogonalLoop=1;jettySize=auto;html=1;exitX=0.5;exitY=1;exitDx=0;exitDy=0;" edge="1" parent="1">
          <mxGeometry relative="1" as="geometry">
            <mxPoint x="375" y="940" as="targetPoint" />
            <Array as="points">
              <mxPoint x="495" y="940" />
            </Array>
            <mxPoint x="495" y="920" as="sourcePoint" />
          </mxGeometry>
        </mxCell>
        <mxCell id="7Oa1Ej6_2Gg9YlCHLcrd-129" style="edgeStyle=orthogonalEdgeStyle;rounded=0;orthogonalLoop=1;jettySize=auto;html=1;" edge="1" parent="1">
          <mxGeometry relative="1" as="geometry">
            <mxPoint x="375" y="960" as="targetPoint" />
            <Array as="points">
              <mxPoint x="615" y="960" />
              <mxPoint x="375" y="960" />
            </Array>
            <mxPoint x="615" y="920" as="sourcePoint" />
          </mxGeometry>
        </mxCell>
        <mxCell id="7Oa1Ej6_2Gg9YlCHLcrd-135" value="" style="edgeStyle=orthogonalEdgeStyle;rounded=0;orthogonalLoop=1;jettySize=auto;html=1;entryX=0.5;entryY=0;entryDx=0;entryDy=0;entryPerimeter=0;" edge="1" parent="1" source="7Oa1Ej6_2Gg9YlCHLcrd-134" target="7Oa1Ej6_2Gg9YlCHLcrd-138">
          <mxGeometry relative="1" as="geometry">
            <mxPoint x="375" y="1000" as="targetPoint" />
          </mxGeometry>
        </mxCell>
        <mxCell id="7Oa1Ej6_2Gg9YlCHLcrd-134" value="write(Format(&#39;| Random (%d)&#39;, [length(arr)]));" style="shape=parallelogram;perimeter=parallelogramPerimeter;whiteSpace=wrap;html=1;fixedSize=1;" vertex="1" parent="1">
          <mxGeometry x="315" y="860" width="120" height="60" as="geometry" />
        </mxCell>
        <mxCell id="7Oa1Ej6_2Gg9YlCHLcrd-136" value="write(Format(&#39;|&lt;div&gt;Sorted (%d)&#39;, [length(arr)]));&lt;/div&gt;" style="shape=parallelogram;perimeter=parallelogramPerimeter;whiteSpace=wrap;html=1;fixedSize=1;" vertex="1" parent="1">
          <mxGeometry x="435" y="860" width="120" height="60" as="geometry" />
        </mxCell>
        <mxCell id="7Oa1Ej6_2Gg9YlCHLcrd-137" value="write(Format(&#39;|&lt;div&gt;Rev-ed&amp;nbsp;(%d)&#39;, [length(arr)]));&lt;/div&gt;" style="shape=parallelogram;perimeter=parallelogramPerimeter;whiteSpace=wrap;html=1;fixedSize=1;" vertex="1" parent="1">
          <mxGeometry x="555" y="860" width="120" height="60" as="geometry" />
        </mxCell>
        <mxCell id="7Oa1Ej6_2Gg9YlCHLcrd-138" value="2" style="strokeWidth=2;html=1;shape=mxgraph.flowchart.start_2;whiteSpace=wrap;" vertex="1" parent="1">
          <mxGeometry x="357.5" y="1002.5" width="35" height="35" as="geometry" />
        </mxCell>
        <mxCell id="7Oa1Ej6_2Gg9YlCHLcrd-159" value="" style="edgeStyle=orthogonalEdgeStyle;rounded=0;orthogonalLoop=1;jettySize=auto;html=1;" edge="1" parent="1" source="7Oa1Ej6_2Gg9YlCHLcrd-139" target="7Oa1Ej6_2Gg9YlCHLcrd-142">
          <mxGeometry relative="1" as="geometry" />
        </mxCell>
        <mxCell id="7Oa1Ej6_2Gg9YlCHLcrd-139" value="2" style="strokeWidth=2;html=1;shape=mxgraph.flowchart.start_2;whiteSpace=wrap;" vertex="1" parent="1">
          <mxGeometry x="930" y="20" width="35" height="35" as="geometry" />
        </mxCell>
        <mxCell id="7Oa1Ej6_2Gg9YlCHLcrd-140" value="yes" style="edgeStyle=orthogonalEdgeStyle;rounded=0;orthogonalLoop=1;jettySize=auto;html=1;entryX=0.5;entryY=0;entryDx=0;entryDy=0;" edge="1" parent="1" source="7Oa1Ej6_2Gg9YlCHLcrd-142" target="7Oa1Ej6_2Gg9YlCHLcrd-155">
          <mxGeometry x="0.2" y="10" relative="1" as="geometry">
            <mxPoint as="offset" />
            <mxPoint x="947" y="190" as="targetPoint" />
          </mxGeometry>
        </mxCell>
        <mxCell id="7Oa1Ej6_2Gg9YlCHLcrd-141" value="no" style="edgeStyle=orthogonalEdgeStyle;rounded=0;orthogonalLoop=1;jettySize=auto;html=1;" edge="1" parent="1" source="7Oa1Ej6_2Gg9YlCHLcrd-142" target="7Oa1Ej6_2Gg9YlCHLcrd-147">
          <mxGeometry x="-0.3333" y="10" relative="1" as="geometry">
            <mxPoint as="offset" />
          </mxGeometry>
        </mxCell>
        <mxCell id="7Oa1Ej6_2Gg9YlCHLcrd-142" value="&lt;div&gt;length(arr)&lt;br&gt;&lt;/div&gt;= 10" style="rhombus;whiteSpace=wrap;html=1;strokeWidth=2;" vertex="1" parent="1">
          <mxGeometry x="907" y="80" width="80" height="80" as="geometry" />
        </mxCell>
        <mxCell id="7Oa1Ej6_2Gg9YlCHLcrd-143" value="" style="edgeStyle=orthogonalEdgeStyle;rounded=0;orthogonalLoop=1;jettySize=auto;html=1;" edge="1" parent="1" source="7Oa1Ej6_2Gg9YlCHLcrd-147" target="7Oa1Ej6_2Gg9YlCHLcrd-151">
          <mxGeometry relative="1" as="geometry" />
        </mxCell>
        <mxCell id="7Oa1Ej6_2Gg9YlCHLcrd-144" value="no" style="edgeLabel;html=1;align=center;verticalAlign=middle;resizable=0;points=[];" vertex="1" connectable="0" parent="7Oa1Ej6_2Gg9YlCHLcrd-143">
          <mxGeometry x="-0.3558" y="-3" relative="1" as="geometry">
            <mxPoint y="-13" as="offset" />
          </mxGeometry>
        </mxCell>
        <mxCell id="7Oa1Ej6_2Gg9YlCHLcrd-145" value="" style="edgeStyle=orthogonalEdgeStyle;rounded=0;orthogonalLoop=1;jettySize=auto;html=1;entryX=0.5;entryY=0;entryDx=0;entryDy=0;" edge="1" parent="1" source="7Oa1Ej6_2Gg9YlCHLcrd-147" target="7Oa1Ej6_2Gg9YlCHLcrd-156">
          <mxGeometry relative="1" as="geometry">
            <mxPoint x="1067" y="190" as="targetPoint" />
          </mxGeometry>
        </mxCell>
        <mxCell id="7Oa1Ej6_2Gg9YlCHLcrd-146" value="yes" style="edgeLabel;html=1;align=center;verticalAlign=middle;resizable=0;points=[];" vertex="1" connectable="0" parent="7Oa1Ej6_2Gg9YlCHLcrd-145">
          <mxGeometry x="-0.8308" y="1" relative="1" as="geometry">
            <mxPoint x="9" y="6" as="offset" />
          </mxGeometry>
        </mxCell>
        <mxCell id="7Oa1Ej6_2Gg9YlCHLcrd-147" value="&lt;div&gt;length(arr)&lt;br&gt;&lt;/div&gt;&lt;div&gt;&lt;span style=&quot;background-color: initial;&quot;&gt;=&lt;/span&gt;&lt;span style=&quot;background-color: initial;&quot;&gt;&amp;nbsp;&lt;/span&gt;100&lt;/div&gt;" style="rhombus;whiteSpace=wrap;html=1;strokeWidth=2;" vertex="1" parent="1">
          <mxGeometry x="1027" y="80" width="80" height="80" as="geometry" />
        </mxCell>
        <mxCell id="7Oa1Ej6_2Gg9YlCHLcrd-148" value="" style="edgeStyle=orthogonalEdgeStyle;rounded=0;orthogonalLoop=1;jettySize=auto;html=1;entryX=0.5;entryY=0;entryDx=0;entryDy=0;" edge="1" parent="1" source="7Oa1Ej6_2Gg9YlCHLcrd-151" target="7Oa1Ej6_2Gg9YlCHLcrd-157">
          <mxGeometry relative="1" as="geometry">
            <mxPoint x="1187" y="190" as="targetPoint" />
          </mxGeometry>
        </mxCell>
        <mxCell id="7Oa1Ej6_2Gg9YlCHLcrd-149" value="yes" style="edgeLabel;html=1;align=center;verticalAlign=middle;resizable=0;points=[];" vertex="1" connectable="0" parent="7Oa1Ej6_2Gg9YlCHLcrd-148">
          <mxGeometry x="0.2769" y="2" relative="1" as="geometry">
            <mxPoint x="8" y="-2" as="offset" />
          </mxGeometry>
        </mxCell>
        <mxCell id="7Oa1Ej6_2Gg9YlCHLcrd-150" style="edgeStyle=orthogonalEdgeStyle;rounded=0;orthogonalLoop=1;jettySize=auto;html=1;exitX=1;exitY=0.5;exitDx=0;exitDy=0;" edge="1" parent="1" source="7Oa1Ej6_2Gg9YlCHLcrd-151">
          <mxGeometry relative="1" as="geometry">
            <mxPoint x="947" y="305" as="targetPoint" />
            <Array as="points">
              <mxPoint x="1252" y="120" />
              <mxPoint x="1252" y="305" />
              <mxPoint x="947" y="305" />
            </Array>
          </mxGeometry>
        </mxCell>
        <mxCell id="7Oa1Ej6_2Gg9YlCHLcrd-162" value="no" style="edgeLabel;html=1;align=center;verticalAlign=middle;resizable=0;points=[];" vertex="1" connectable="0" parent="7Oa1Ej6_2Gg9YlCHLcrd-150">
          <mxGeometry x="-0.9338" y="-3" relative="1" as="geometry">
            <mxPoint x="-9" y="-13" as="offset" />
          </mxGeometry>
        </mxCell>
        <mxCell id="7Oa1Ej6_2Gg9YlCHLcrd-151" value="&lt;div&gt;length(arr)&lt;br&gt;&lt;/div&gt;&lt;div&gt;&lt;span style=&quot;background-color: initial;&quot;&gt;=&lt;/span&gt;&lt;span style=&quot;background-color: initial;&quot;&gt;&amp;nbsp;&lt;/span&gt;2000&lt;/div&gt;" style="rhombus;whiteSpace=wrap;html=1;strokeWidth=2;" vertex="1" parent="1">
          <mxGeometry x="1147" y="80" width="80" height="80" as="geometry" />
        </mxCell>
        <mxCell id="7Oa1Ej6_2Gg9YlCHLcrd-152" style="edgeStyle=orthogonalEdgeStyle;rounded=0;orthogonalLoop=1;jettySize=auto;html=1;exitX=0.5;exitY=1;exitDx=0;exitDy=0;" edge="1" parent="1">
          <mxGeometry relative="1" as="geometry">
            <mxPoint x="947" y="265" as="targetPoint" />
            <Array as="points">
              <mxPoint x="1067" y="265" />
            </Array>
            <mxPoint x="1067" y="245" as="sourcePoint" />
          </mxGeometry>
        </mxCell>
        <mxCell id="7Oa1Ej6_2Gg9YlCHLcrd-153" style="edgeStyle=orthogonalEdgeStyle;rounded=0;orthogonalLoop=1;jettySize=auto;html=1;" edge="1" parent="1">
          <mxGeometry relative="1" as="geometry">
            <mxPoint x="947" y="285" as="targetPoint" />
            <Array as="points">
              <mxPoint x="1187" y="285" />
              <mxPoint x="947" y="285" />
            </Array>
            <mxPoint x="1187" y="245" as="sourcePoint" />
          </mxGeometry>
        </mxCell>
        <mxCell id="7Oa1Ej6_2Gg9YlCHLcrd-154" value="" style="edgeStyle=orthogonalEdgeStyle;rounded=0;orthogonalLoop=1;jettySize=auto;html=1;entryX=0.5;entryY=0;entryDx=0;entryDy=0;" edge="1" parent="1" source="7Oa1Ej6_2Gg9YlCHLcrd-155" target="7Oa1Ej6_2Gg9YlCHLcrd-163">
          <mxGeometry relative="1" as="geometry">
            <mxPoint x="947.0000000000002" y="327.5" as="targetPoint" />
          </mxGeometry>
        </mxCell>
        <mxCell id="7Oa1Ej6_2Gg9YlCHLcrd-155" value="write(&#39;&amp;nbsp; &amp;nbsp; | &#39;);" style="shape=parallelogram;perimeter=parallelogramPerimeter;whiteSpace=wrap;html=1;fixedSize=1;" vertex="1" parent="1">
          <mxGeometry x="887" y="185" width="120" height="60" as="geometry" />
        </mxCell>
        <mxCell id="7Oa1Ej6_2Gg9YlCHLcrd-156" value="write(&#39;&amp;nbsp; &amp;nbsp;| &#39;);" style="shape=parallelogram;perimeter=parallelogramPerimeter;whiteSpace=wrap;html=1;fixedSize=1;" vertex="1" parent="1">
          <mxGeometry x="1007" y="185" width="120" height="60" as="geometry" />
        </mxCell>
        <mxCell id="7Oa1Ej6_2Gg9YlCHLcrd-157" value="write(&#39;&amp;nbsp; | &#39;);" style="shape=parallelogram;perimeter=parallelogramPerimeter;whiteSpace=wrap;html=1;fixedSize=1;" vertex="1" parent="1">
          <mxGeometry x="1127" y="185" width="120" height="60" as="geometry" />
        </mxCell>
        <mxCell id="7Oa1Ej6_2Gg9YlCHLcrd-165" value="" style="edgeStyle=orthogonalEdgeStyle;rounded=0;orthogonalLoop=1;jettySize=auto;html=1;" edge="1" parent="1" source="7Oa1Ej6_2Gg9YlCHLcrd-163" target="7Oa1Ej6_2Gg9YlCHLcrd-164">
          <mxGeometry relative="1" as="geometry" />
        </mxCell>
        <mxCell id="7Oa1Ej6_2Gg9YlCHLcrd-163" value="&lt;div&gt;&amp;nbsp; fill(arr, fillType);&lt;/div&gt;" style="shape=process;whiteSpace=wrap;html=1;backgroundOutline=1;" vertex="1" parent="1">
          <mxGeometry x="887" y="330" width="120" height="30" as="geometry" />
        </mxCell>
        <mxCell id="7Oa1Ej6_2Gg9YlCHLcrd-167" value="" style="edgeStyle=orthogonalEdgeStyle;rounded=0;orthogonalLoop=1;jettySize=auto;html=1;" edge="1" parent="1" source="7Oa1Ej6_2Gg9YlCHLcrd-164" target="7Oa1Ej6_2Gg9YlCHLcrd-166">
          <mxGeometry relative="1" as="geometry" />
        </mxCell>
        <mxCell id="7Oa1Ej6_2Gg9YlCHLcrd-164" value="&lt;div&gt;&amp;nbsp; SortBubbleWFlag(arr, comparisons, insertions);&lt;/div&gt;" style="shape=process;whiteSpace=wrap;html=1;backgroundOutline=1;" vertex="1" parent="1">
          <mxGeometry x="866" y="380" width="163" height="50" as="geometry" />
        </mxCell>
        <mxCell id="7Oa1Ej6_2Gg9YlCHLcrd-169" value="" style="edgeStyle=orthogonalEdgeStyle;rounded=0;orthogonalLoop=1;jettySize=auto;html=1;" edge="1" parent="1" source="7Oa1Ej6_2Gg9YlCHLcrd-166" target="7Oa1Ej6_2Gg9YlCHLcrd-168">
          <mxGeometry relative="1" as="geometry" />
        </mxCell>
        <mxCell id="7Oa1Ej6_2Gg9YlCHLcrd-166" value="&lt;div&gt;write(comparisons:11,&lt;/div&gt;&lt;div&gt;&#39; | &#39;, insertions:10);&lt;/div&gt;" style="shape=parallelogram;perimeter=parallelogramPerimeter;whiteSpace=wrap;html=1;fixedSize=1;" vertex="1" parent="1">
          <mxGeometry x="866" y="450" width="163" height="40" as="geometry" />
        </mxCell>
        <mxCell id="7Oa1Ej6_2Gg9YlCHLcrd-171" value="" style="edgeStyle=orthogonalEdgeStyle;rounded=0;orthogonalLoop=1;jettySize=auto;html=1;" edge="1" parent="1" source="7Oa1Ej6_2Gg9YlCHLcrd-168" target="7Oa1Ej6_2Gg9YlCHLcrd-170">
          <mxGeometry relative="1" as="geometry" />
        </mxCell>
        <mxCell id="7Oa1Ej6_2Gg9YlCHLcrd-168" value="&lt;div&gt;&amp;nbsp; fill(arr, fillType);&lt;/div&gt;" style="shape=process;whiteSpace=wrap;html=1;backgroundOutline=1;" vertex="1" parent="1">
          <mxGeometry x="887.5" y="505" width="120" height="30" as="geometry" />
        </mxCell>
        <mxCell id="7Oa1Ej6_2Gg9YlCHLcrd-173" value="" style="edgeStyle=orthogonalEdgeStyle;rounded=0;orthogonalLoop=1;jettySize=auto;html=1;" edge="1" parent="1" source="7Oa1Ej6_2Gg9YlCHLcrd-170" target="7Oa1Ej6_2Gg9YlCHLcrd-172">
          <mxGeometry relative="1" as="geometry" />
        </mxCell>
        <mxCell id="7Oa1Ej6_2Gg9YlCHLcrd-170" value="&lt;div&gt;SortShell(arr, comparisons, insertions);&lt;/div&gt;" style="shape=process;whiteSpace=wrap;html=1;backgroundOutline=1;" vertex="1" parent="1">
          <mxGeometry x="866" y="550" width="163" height="50" as="geometry" />
        </mxCell>
        <mxCell id="7Oa1Ej6_2Gg9YlCHLcrd-174" value="" style="edgeStyle=orthogonalEdgeStyle;rounded=0;orthogonalLoop=1;jettySize=auto;html=1;" edge="1" parent="1" source="7Oa1Ej6_2Gg9YlCHLcrd-172" target="7Oa1Ej6_2Gg9YlCHLcrd-107">
          <mxGeometry relative="1" as="geometry" />
        </mxCell>
        <mxCell id="7Oa1Ej6_2Gg9YlCHLcrd-172" value="&lt;div&gt;writeln(&#39; | &#39;, comparisons:11,&lt;/div&gt;&lt;div&gt;&#39; | &#39;, insertions:10, &#39; |&#39;);&lt;/div&gt;" style="shape=parallelogram;perimeter=parallelogramPerimeter;whiteSpace=wrap;html=1;fixedSize=1;" vertex="1" parent="1">
          <mxGeometry x="855" y="620" width="184" height="40" as="geometry" />
        </mxCell>
        <mxCell id="7Oa1Ej6_2Gg9YlCHLcrd-179" value="" style="edgeStyle=orthogonalEdgeStyle;rounded=0;orthogonalLoop=1;jettySize=auto;html=1;" edge="1" parent="1" source="7Oa1Ej6_2Gg9YlCHLcrd-176" target="7Oa1Ej6_2Gg9YlCHLcrd-178">
          <mxGeometry relative="1" as="geometry" />
        </mxCell>
        <mxCell id="7Oa1Ej6_2Gg9YlCHLcrd-176" value="start SortBubbleWFlag" style="html=1;dashed=0;whiteSpace=wrap;shape=mxgraph.dfd.start" vertex="1" parent="1">
          <mxGeometry x="877.5" y="730" width="140" height="30" as="geometry" />
        </mxCell>
        <mxCell id="7Oa1Ej6_2Gg9YlCHLcrd-177" value="end SortBubbleWFlag" style="html=1;dashed=0;whiteSpace=wrap;shape=mxgraph.dfd.start" vertex="1" parent="1">
          <mxGeometry x="1407.5" y="660" width="140" height="30" as="geometry" />
        </mxCell>
        <mxCell id="7Oa1Ej6_2Gg9YlCHLcrd-182" value="" style="edgeStyle=orthogonalEdgeStyle;rounded=0;orthogonalLoop=1;jettySize=auto;html=1;" edge="1" parent="1" source="7Oa1Ej6_2Gg9YlCHLcrd-178" target="7Oa1Ej6_2Gg9YlCHLcrd-181">
          <mxGeometry relative="1" as="geometry" />
        </mxCell>
        <mxCell id="7Oa1Ej6_2Gg9YlCHLcrd-178" value="&lt;div&gt;&lt;span style=&quot;background-color: initial;&quot;&gt;arr,&amp;nbsp;&lt;/span&gt;&lt;span style=&quot;background-color: initial;&quot;&gt;comparisons, insertions&lt;/span&gt;&lt;br&gt;&lt;/div&gt;" style="shape=parallelogram;perimeter=parallelogramPerimeter;whiteSpace=wrap;html=1;fixedSize=1;" vertex="1" parent="1">
          <mxGeometry x="882.5" y="780" width="130" height="40" as="geometry" />
        </mxCell>
        <mxCell id="7Oa1Ej6_2Gg9YlCHLcrd-184" value="" style="edgeStyle=orthogonalEdgeStyle;rounded=0;orthogonalLoop=1;jettySize=auto;html=1;" edge="1" parent="1" source="7Oa1Ej6_2Gg9YlCHLcrd-181" target="7Oa1Ej6_2Gg9YlCHLcrd-183">
          <mxGeometry relative="1" as="geometry" />
        </mxCell>
        <mxCell id="7Oa1Ej6_2Gg9YlCHLcrd-181" value="&lt;div&gt;comparisons := 0;&lt;/div&gt;&lt;div&gt;insertions := 0;&lt;span style=&quot;background-color: initial;&quot;&gt;&amp;nbsp;&amp;nbsp;&lt;/span&gt;&lt;/div&gt;&lt;div&gt;i := 0;&lt;/div&gt;&lt;div&gt;swapped := true;&lt;/div&gt;" style="whiteSpace=wrap;html=1;" vertex="1" parent="1">
          <mxGeometry x="887.5" y="840" width="120" height="60" as="geometry" />
        </mxCell>
        <mxCell id="7Oa1Ej6_2Gg9YlCHLcrd-190" value="" style="edgeStyle=orthogonalEdgeStyle;rounded=0;orthogonalLoop=1;jettySize=auto;html=1;" edge="1" parent="1" source="7Oa1Ej6_2Gg9YlCHLcrd-183" target="7Oa1Ej6_2Gg9YlCHLcrd-189">
          <mxGeometry relative="1" as="geometry" />
        </mxCell>
        <mxCell id="7Oa1Ej6_2Gg9YlCHLcrd-183" value="&lt;div&gt;bubbleWhileI&lt;/div&gt;&lt;div&gt;(i &amp;lt; length(arr)-1) and&amp;nbsp;swapped&lt;/div&gt;" style="strokeWidth=2;html=1;shape=mxgraph.flowchart.loop_limit;whiteSpace=wrap;" vertex="1" parent="1">
          <mxGeometry x="892.5" y="920" width="110" height="50" as="geometry" />
        </mxCell>
        <mxCell id="7Oa1Ej6_2Gg9YlCHLcrd-185" value="" style="group" vertex="1" connectable="0" parent="1">
          <mxGeometry x="1427.5" y="590" width="100" height="40" as="geometry" />
        </mxCell>
        <mxCell id="7Oa1Ej6_2Gg9YlCHLcrd-186" value="" style="strokeWidth=2;html=1;shape=mxgraph.flowchart.loop_limit;whiteSpace=wrap;rotation=-180;" vertex="1" parent="7Oa1Ej6_2Gg9YlCHLcrd-185">
          <mxGeometry width="100" height="40" as="geometry" />
        </mxCell>
        <mxCell id="7Oa1Ej6_2Gg9YlCHLcrd-187" value="bubbleWhileI" style="text;whiteSpace=wrap;html=1;align=center;verticalAlign=middle;" vertex="1" parent="7Oa1Ej6_2Gg9YlCHLcrd-185">
          <mxGeometry width="100" height="40" as="geometry" />
        </mxCell>
        <mxCell id="7Oa1Ej6_2Gg9YlCHLcrd-189" value="&lt;div&gt;j := 0;&lt;/div&gt;&lt;div&gt;swapped := false;&lt;/div&gt;" style="whiteSpace=wrap;html=1;strokeWidth=2;" vertex="1" parent="1">
          <mxGeometry x="887.5" y="990" width="120" height="55" as="geometry" />
        </mxCell>
        <mxCell id="7Oa1Ej6_2Gg9YlCHLcrd-191" value="2.1" style="strokeWidth=2;html=1;shape=mxgraph.flowchart.start_2;whiteSpace=wrap;" vertex="1" parent="1">
          <mxGeometry x="930" y="1060" width="35" height="35" as="geometry" />
        </mxCell>
        <mxCell id="7Oa1Ej6_2Gg9YlCHLcrd-192" style="edgeStyle=orthogonalEdgeStyle;rounded=0;orthogonalLoop=1;jettySize=auto;html=1;exitX=0.5;exitY=1;exitDx=0;exitDy=0;entryX=0.5;entryY=0;entryDx=0;entryDy=0;entryPerimeter=0;" edge="1" parent="1" source="7Oa1Ej6_2Gg9YlCHLcrd-189" target="7Oa1Ej6_2Gg9YlCHLcrd-191">
          <mxGeometry relative="1" as="geometry" />
        </mxCell>
        <mxCell id="7Oa1Ej6_2Gg9YlCHLcrd-196" value="" style="edgeStyle=orthogonalEdgeStyle;rounded=0;orthogonalLoop=1;jettySize=auto;html=1;" edge="1" parent="1" source="7Oa1Ej6_2Gg9YlCHLcrd-193" target="7Oa1Ej6_2Gg9YlCHLcrd-195">
          <mxGeometry relative="1" as="geometry" />
        </mxCell>
        <mxCell id="7Oa1Ej6_2Gg9YlCHLcrd-193" value="2.1" style="strokeWidth=2;html=1;shape=mxgraph.flowchart.start_2;whiteSpace=wrap;" vertex="1" parent="1">
          <mxGeometry x="1460" y="30" width="35" height="35" as="geometry" />
        </mxCell>
        <mxCell id="7Oa1Ej6_2Gg9YlCHLcrd-198" value="" style="edgeStyle=orthogonalEdgeStyle;rounded=0;orthogonalLoop=1;jettySize=auto;html=1;" edge="1" parent="1" source="7Oa1Ej6_2Gg9YlCHLcrd-195" target="7Oa1Ej6_2Gg9YlCHLcrd-197">
          <mxGeometry relative="1" as="geometry" />
        </mxCell>
        <mxCell id="7Oa1Ej6_2Gg9YlCHLcrd-195" value="&lt;div&gt;bubbleWhileJ&lt;/div&gt;&lt;div&gt;&lt;span style=&quot;text-align: left;&quot;&gt;j &amp;lt; length(arr)-1-i&lt;/span&gt;&lt;br&gt;&lt;/div&gt;" style="strokeWidth=2;html=1;shape=mxgraph.flowchart.loop_limit;whiteSpace=wrap;" vertex="1" parent="1">
          <mxGeometry x="1422.5" y="90" width="110" height="50" as="geometry" />
        </mxCell>
        <mxCell id="7Oa1Ej6_2Gg9YlCHLcrd-200" value="" style="edgeStyle=orthogonalEdgeStyle;rounded=0;orthogonalLoop=1;jettySize=auto;html=1;" edge="1" parent="1" source="7Oa1Ej6_2Gg9YlCHLcrd-197" target="7Oa1Ej6_2Gg9YlCHLcrd-199">
          <mxGeometry relative="1" as="geometry" />
        </mxCell>
        <mxCell id="7Oa1Ej6_2Gg9YlCHLcrd-197" value="&lt;div&gt;Inc(comparisons);&lt;/div&gt;" style="whiteSpace=wrap;html=1;strokeWidth=2;" vertex="1" parent="1">
          <mxGeometry x="1417.5" y="157.5" width="120" height="25" as="geometry" />
        </mxCell>
        <mxCell id="7Oa1Ej6_2Gg9YlCHLcrd-206" value="" style="edgeStyle=orthogonalEdgeStyle;rounded=0;orthogonalLoop=1;jettySize=auto;html=1;" edge="1" parent="1" source="7Oa1Ej6_2Gg9YlCHLcrd-199" target="7Oa1Ej6_2Gg9YlCHLcrd-205">
          <mxGeometry relative="1" as="geometry" />
        </mxCell>
        <mxCell id="7Oa1Ej6_2Gg9YlCHLcrd-210" value="no" style="edgeLabel;html=1;align=center;verticalAlign=middle;resizable=0;points=[];" vertex="1" connectable="0" parent="7Oa1Ej6_2Gg9YlCHLcrd-206">
          <mxGeometry x="-0.8045" y="1" relative="1" as="geometry">
            <mxPoint x="-8" as="offset" />
          </mxGeometry>
        </mxCell>
        <mxCell id="7Oa1Ej6_2Gg9YlCHLcrd-208" value="" style="edgeStyle=orthogonalEdgeStyle;rounded=0;orthogonalLoop=1;jettySize=auto;html=1;entryX=0.5;entryY=0;entryDx=0;entryDy=0;" edge="1" parent="1" source="7Oa1Ej6_2Gg9YlCHLcrd-199" target="7Oa1Ej6_2Gg9YlCHLcrd-207">
          <mxGeometry relative="1" as="geometry" />
        </mxCell>
        <mxCell id="7Oa1Ej6_2Gg9YlCHLcrd-209" value="yes" style="edgeLabel;html=1;align=center;verticalAlign=middle;resizable=0;points=[];" vertex="1" connectable="0" parent="7Oa1Ej6_2Gg9YlCHLcrd-208">
          <mxGeometry x="-0.7521" y="1" relative="1" as="geometry">
            <mxPoint y="-9" as="offset" />
          </mxGeometry>
        </mxCell>
        <mxCell id="7Oa1Ej6_2Gg9YlCHLcrd-199" value="arr[j] &amp;gt; arr[j+1]&amp;nbsp;" style="rhombus;whiteSpace=wrap;html=1;strokeWidth=2;" vertex="1" parent="1">
          <mxGeometry x="1437.5" y="210" width="80" height="80" as="geometry" />
        </mxCell>
        <mxCell id="7Oa1Ej6_2Gg9YlCHLcrd-201" value="" style="group" vertex="1" connectable="0" parent="1">
          <mxGeometry x="1427.5" y="470" width="100" height="40" as="geometry" />
        </mxCell>
        <mxCell id="7Oa1Ej6_2Gg9YlCHLcrd-202" value="" style="strokeWidth=2;html=1;shape=mxgraph.flowchart.loop_limit;whiteSpace=wrap;rotation=-180;" vertex="1" parent="7Oa1Ej6_2Gg9YlCHLcrd-201">
          <mxGeometry width="100" height="40" as="geometry" />
        </mxCell>
        <mxCell id="7Oa1Ej6_2Gg9YlCHLcrd-203" value="bubbleWhileJ" style="text;whiteSpace=wrap;html=1;align=center;verticalAlign=middle;" vertex="1" parent="7Oa1Ej6_2Gg9YlCHLcrd-201">
          <mxGeometry width="100" height="40" as="geometry" />
        </mxCell>
        <mxCell id="7Oa1Ej6_2Gg9YlCHLcrd-212" value="" style="edgeStyle=orthogonalEdgeStyle;rounded=0;orthogonalLoop=1;jettySize=auto;html=1;" edge="1" parent="1" source="7Oa1Ej6_2Gg9YlCHLcrd-205" target="7Oa1Ej6_2Gg9YlCHLcrd-203">
          <mxGeometry relative="1" as="geometry" />
        </mxCell>
        <mxCell id="7Oa1Ej6_2Gg9YlCHLcrd-205" value="Inc(j);" style="whiteSpace=wrap;html=1;strokeWidth=2;" vertex="1" parent="1">
          <mxGeometry x="1446.25" y="410" width="62.5" height="30" as="geometry" />
        </mxCell>
        <mxCell id="7Oa1Ej6_2Gg9YlCHLcrd-211" style="edgeStyle=orthogonalEdgeStyle;rounded=0;orthogonalLoop=1;jettySize=auto;html=1;exitX=0.5;exitY=1;exitDx=0;exitDy=0;" edge="1" parent="1" source="7Oa1Ej6_2Gg9YlCHLcrd-207">
          <mxGeometry relative="1" as="geometry">
            <mxPoint x="1478" y="380" as="targetPoint" />
            <mxPoint x="1604.2499999999998" y="360" as="sourcePoint" />
            <Array as="points">
              <mxPoint x="1606" y="380" />
            </Array>
          </mxGeometry>
        </mxCell>
        <mxCell id="7Oa1Ej6_2Gg9YlCHLcrd-207" value="&lt;div&gt;temp := arr[j];&lt;/div&gt;&lt;div&gt;arr[j] := arr[j+1];&lt;/div&gt;&lt;div&gt;arr[j+1] := temp;&lt;/div&gt;&lt;div&gt;Inc(insertions, 3);&lt;/div&gt;&lt;div&gt;swapped := true;&lt;/div&gt;" style="whiteSpace=wrap;html=1;strokeWidth=2;" vertex="1" parent="1">
          <mxGeometry x="1550" y="280" width="112.5" height="80" as="geometry" />
        </mxCell>
        <mxCell id="7Oa1Ej6_2Gg9YlCHLcrd-216" value="" style="edgeStyle=orthogonalEdgeStyle;rounded=0;orthogonalLoop=1;jettySize=auto;html=1;" edge="1" parent="1" source="7Oa1Ej6_2Gg9YlCHLcrd-214" target="7Oa1Ej6_2Gg9YlCHLcrd-187">
          <mxGeometry relative="1" as="geometry" />
        </mxCell>
        <mxCell id="7Oa1Ej6_2Gg9YlCHLcrd-214" value="&lt;span style=&quot;text-align: left;&quot;&gt;Inc(i);&lt;/span&gt;" style="whiteSpace=wrap;html=1;strokeWidth=2;" vertex="1" parent="1">
          <mxGeometry x="1446.25" y="535" width="62.5" height="30" as="geometry" />
        </mxCell>
        <mxCell id="7Oa1Ej6_2Gg9YlCHLcrd-215" value="" style="edgeStyle=orthogonalEdgeStyle;rounded=0;orthogonalLoop=1;jettySize=auto;html=1;" edge="1" parent="1" source="7Oa1Ej6_2Gg9YlCHLcrd-203" target="7Oa1Ej6_2Gg9YlCHLcrd-214">
          <mxGeometry relative="1" as="geometry" />
        </mxCell>
        <mxCell id="7Oa1Ej6_2Gg9YlCHLcrd-217" value="" style="edgeStyle=orthogonalEdgeStyle;rounded=0;orthogonalLoop=1;jettySize=auto;html=1;" edge="1" parent="1" source="7Oa1Ej6_2Gg9YlCHLcrd-187" target="7Oa1Ej6_2Gg9YlCHLcrd-177">
          <mxGeometry relative="1" as="geometry" />
        </mxCell>
      </root>
    </mxGraphModel>
  </diagram>
</mxfile>
